<?xml version="1.0" encoding="UTF-8"?>
<svg id="Layer_2" data-name="Layer 2" xmlns="http://www.w3.org/2000/svg" viewBox="0 0 409.27 125.65">
  <g id="Layer_6" data-name="Layer 6">
    <path d="m6.85,124.95h6.27c3.79,0,6.85-3.07,6.85-6.85v-25.4c0-3.79,3.07-6.85,6.85-6.85h5.63c3.79,0,6.85,3.07,6.85,6.85v25.4c0,3.79,3.07,6.85,6.85,6.85h6.34c3.79,0,6.85-3.07,6.85-6.85v-25.4c0-3.79,3.07-6.85,6.85-6.85h6.1c3.79,0,6.85,3.07,6.85,6.85v25.4c0,3.79,3.07,6.85,6.85,6.85h6.1c3.79,0,6.85-3.07,6.85-6.85v-46.88c0-2.96-1.9-5.58-4.7-6.51l-21.05-6.96c-2.46-.81-5.17-.17-7,1.66l-11.87,11.88c-2.68,2.69-7.04,2.68-9.71-.01l-11.8-11.88c-1.82-1.83-4.51-2.48-6.96-1.7l-21.12,6.79c-2.83.91-4.76,3.55-4.76,6.53v47.07c0,3.79,3.07,6.85,6.85,6.85Z"/>
    <path d="m206.66,35.93v82.64c0,4.33,3.86,7.64,8.14,6.99l53.42-8.17c3.45-.53,6-3.5,6-6.99V43.18c0-3.54-2.62-6.53-6.12-7.01l-53.42-7.25c-4.24-.58-8.02,2.72-8.02,7.01Zm17.45,12.07l33.8,4.39c2.22.29,3.87,2.1,3.87,4.25v40.75c0,2.12-1.61,3.92-3.8,4.24l-33.8,4.95c-2.71.4-5.15-1.61-5.15-4.24v-50.1c0-2.6,2.39-4.6,5.07-4.25Z"/>
    <path d="m43.42,64.85l-6.63-6.63c-.86-.86-1.34-2.02-1.34-3.23V4.57c0-2.52,2.04-4.57,4.57-4.57h19.01c2.52,0,4.57,2.04,4.57,4.57v50.64c0,1.19-.46,2.33-1.3,3.19l-6.21,6.37c-3.46,3.55-9.16,3.59-12.67.08Z"/>
    <g>
      <path d="m138.88,104.37c0,2.54-.63,4.42-1.89,5.64-1.26,1.22-2.66,1.83-4.19,1.83h-14.69c0,1.16.68,2.13,2.05,2.91,1.36.79,2.73,1.18,4.09,1.18,2.4,0,4.28-.25,5.64-.74l.68-.25c.99-.45,1.82-.68,2.48-.68,1.32,0,2.46.93,3.41,2.79.54,1.12.81,2.07.81,2.85,0,3.68-4.4,5.52-13.21,5.52-3.06,0-5.78-.53-8.15-1.58-2.38-1.05-4.23-2.45-5.55-4.19-2.6-3.35-3.91-7.09-3.91-11.22,0-5.21,1.68-9.37,5.05-12.49,3.37-3.12,7.57-4.68,12.62-4.68,5.75,0,9.96,2.03,12.65,6.08,1.4,2.15,2.11,4.49,2.11,7.04Zm-13.08,1.83c1.57,0,2.36-.66,2.36-1.98,0-.95-.36-1.71-1.08-2.29-.72-.58-1.76-.87-3.1-.87s-2.68.55-4,1.64c-1.32,1.1-1.98,2.26-1.98,3.5h7.81Z"/>
      <path d="m164.11,95.41c.25-2.31,1.88-3.47,4.9-3.47,1.61,0,2.81.12,3.6.37.78.25,1.33.68,1.64,1.3s.5,1.17.56,1.64c.06.48.09,1.19.09,2.14v21.7c0,.95-.03,1.66-.09,2.14-.06.48-.24,1.02-.53,1.64-.58,1.08-2,1.61-4.25,1.61s-3.76-.28-4.53-.84c-.77-.56-1.21-1.37-1.33-2.45-1.53,2.19-4.08,3.29-7.66,3.29s-6.89-1.63-9.95-4.9c-3.06-3.26-4.59-7.06-4.59-11.38s1.54-8.1,4.62-11.35c3.08-3.24,6.46-4.87,10.14-4.87,1.4,0,2.69.25,3.84.74,1.16.5,1.96.96,2.42,1.4.45.43.83.86,1.12,1.27Zm-11.28,12.9c0,1.36.54,2.59,1.61,3.69,1.07,1.1,2.38,1.64,3.91,1.64s2.8-.56,3.81-1.67c1.01-1.12,1.52-2.35,1.52-3.69s-.49-2.59-1.46-3.75c-.97-1.16-2.27-1.74-3.91-1.74s-2.96.58-3.97,1.74c-1.01,1.16-1.52,2.42-1.52,3.78Z"/>
      <path d="m179.86,82.02c0-.95.03-1.66.09-2.14.06-.47.24-1.02.53-1.64.58-1.12,2.19-1.67,4.84-1.67s4.09.56,4.71,1.67c.33.62.53,1.18.59,1.67.06.5.09,1.22.09,2.17v28.71c0,1.49.12,2.43.37,2.82.25.39.79.59,1.64.59s1.42.03,1.71.09c.29.06.64.24,1.05.53.83.54,1.24,2.01,1.24,4.4,0,2.6-.41,4.2-1.24,4.77-1.08.74-3.64.87-7.69.37-3.18-.41-5.25-1.47-6.2-3.16-1.16-2.02-1.74-5.25-1.74-9.67v-29.51Z"/>
    </g>
    <g>
      <path d="m315.71,104.37c0,2.54-.63,4.42-1.89,5.64-1.26,1.22-2.66,1.83-4.19,1.83h-14.69c0,1.16.68,2.13,2.05,2.91,1.36.79,2.73,1.18,4.09,1.18,2.4,0,4.28-.25,5.64-.74l.68-.25c.99-.45,1.82-.68,2.48-.68,1.32,0,2.46.93,3.41,2.79.54,1.12.81,2.07.81,2.85,0,3.68-4.4,5.52-13.21,5.52-3.06,0-5.78-.53-8.15-1.58-2.38-1.05-4.23-2.45-5.55-4.19-2.6-3.35-3.91-7.09-3.91-11.22,0-5.21,1.68-9.37,5.05-12.49,3.37-3.12,7.57-4.68,12.62-4.68,5.75,0,9.96,2.03,12.65,6.08,1.4,2.15,2.11,4.49,2.11,7.04Zm-13.08,1.83c1.57,0,2.36-.66,2.36-1.98,0-.95-.36-1.71-1.08-2.29-.72-.58-1.76-.87-3.1-.87s-2.68.55-4,1.64c-1.32,1.1-1.98,2.26-1.98,3.5h7.81Z"/>
      <path d="m340.94,95.41c.25-2.31,1.88-3.47,4.9-3.47,1.61,0,2.81.12,3.6.37.78.25,1.33.68,1.64,1.3s.5,1.17.56,1.64c.06.48.09,1.19.09,2.14v21.7c0,.95-.03,1.66-.09,2.14-.06.48-.24,1.02-.53,1.64-.58,1.08-2,1.61-4.25,1.61s-3.76-.28-4.53-.84c-.77-.56-1.21-1.37-1.33-2.45-1.53,2.19-4.08,3.29-7.66,3.29s-6.89-1.63-9.95-4.9c-3.06-3.26-4.59-7.06-4.59-11.38s1.54-8.1,4.62-11.35c3.08-3.24,6.46-4.87,10.14-4.87,1.4,0,2.69.25,3.84.74,1.16.5,1.96.96,2.42,1.4.45.43.83.86,1.12,1.27Zm-11.28,12.9c0,1.36.54,2.59,1.61,3.69,1.07,1.1,2.38,1.64,3.91,1.64s2.8-.56,3.81-1.67c1.01-1.12,1.52-2.35,1.52-3.69s-.49-2.59-1.46-3.75c-.97-1.16-2.27-1.74-3.91-1.74s-2.96.58-3.97,1.74c-1.01,1.16-1.52,2.42-1.52,3.78Z"/>
      <path d="m356.69,82.02c0-.95.03-1.66.09-2.14.06-.47.24-1.02.53-1.64.58-1.12,2.19-1.67,4.84-1.67s4.09.56,4.71,1.67c.33.62.53,1.18.59,1.67.06.5.09,1.22.09,2.17v28.71c0,1.49.12,2.43.37,2.82.25.39.79.59,1.64.59s1.42.03,1.71.09c.29.06.64.24,1.05.53.83.54,1.24,2.01,1.24,4.4,0,2.6-.41,4.2-1.24,4.77-1.08.74-3.64.87-7.69.37-3.18-.41-5.25-1.47-6.2-3.16-1.16-2.02-1.74-5.25-1.74-9.67v-29.51Z"/>
      <path d="m393.27,113.7h10.6c1.65,0,2.84.21,3.57.62.72.41,1.21,1.01,1.46,1.8.25.79.37,1.82.37,3.1s-.12,2.32-.37,3.1c-.25.79-.68,1.33-1.3,1.64s-1.17.5-1.64.56c-.48.06-1.19.09-2.14.09h-22.38c-1.45,0-2.71-.54-3.78-1.61-1.08-1.07-1.61-2.36-1.61-3.84s.54-2.76,1.61-3.81c1.07-1.05,2.73-2.57,4.96-4.56,2.23-1.98,4.26-3.77,6.08-5.36,1.82-1.59,2.81-2.47,2.98-2.64h-8.74c-2.36,0-3.84-.39-4.46-1.18-.7-.91-1.05-2.11-1.05-3.6s.1-2.59.31-3.32c.21-.72.45-1.26.74-1.61.29-.35.7-.63,1.24-.84.7-.21,1.78-.31,3.22-.31h20.15c1.45,0,2.71.52,3.78,1.55,1.08,1.03,1.61,2.33,1.61,3.88s-.62,2.92-1.86,4.12c-1.24,1.2-5.68,5.27-13.33,12.21Z"/>
    </g>
  </g>
</svg>