<?xml version="1.0" encoding="UTF-8"?>
<svg id="Layer_2" data-name="Layer 2" xmlns="http://www.w3.org/2000/svg" viewBox="0 0 428.82 114.24">
  <g id="Layer_6" data-name="Layer 6">
    <path d="m3.95,71.96h3.61c2.18,0,3.95-1.77,3.95-3.95v-14.63c0-2.18,1.77-3.95,3.95-3.95h3.24c2.18,0,3.95,1.77,3.95,3.95v14.63c0,2.18,1.77,3.95,3.95,3.95h3.65c2.18,0,3.95-1.77,3.95-3.95v-14.63c0-2.18,1.77-3.95,3.95-3.95h3.51c2.18,0,3.95,1.77,3.95,3.95v14.63c0,2.18,1.77,3.95,3.95,3.95h3.51c2.18,0,3.95-1.77,3.95-3.95v-27c0-1.7-1.09-3.21-2.71-3.75l-12.12-4.01c-1.42-.47-2.98-.1-4.03.96l-6.84,6.84c-1.55,1.55-4.05,1.54-5.59,0l-6.79-6.84c-1.05-1.05-2.6-1.43-4.01-.98l-12.17,3.91c-1.63.52-2.74,2.04-2.74,3.76v27.11c0,2.18,1.77,3.95,3.95,3.95Z"/>
    <path d="m52.27,73.99H4.68c-2.49,0-4.4,2.22-4.03,4.69l4.71,30.77c.3,1.99,2.01,3.46,4.03,3.46h38.71c2.04,0,3.76-1.51,4.04-3.52l4.17-30.77c.33-2.44-1.57-4.62-4.04-4.62Zm-6.95,10.05l-2.53,19.46c-.17,1.28-1.21,2.23-2.45,2.23h-23.47c-1.22,0-2.26-.93-2.44-2.19l-2.85-19.46c-.23-1.56.93-2.97,2.44-2.97h28.85c1.5,0,2.65,1.38,2.45,2.92Z"/>
    <path d="m25,37.35l-3.82-3.82c-.49-.49-.77-1.16-.77-1.86V2.63c0-1.45,1.18-2.63,2.63-2.63h10.95c1.45,0,2.63,1.18,2.63,2.63v29.17c0,.69-.27,1.34-.75,1.84l-3.58,3.67c-1.99,2.05-5.28,2.07-7.3.05Z"/>
    <g>
      <path d="m147.79,39.65c.56,1.05.89,1.99,1,2.83.1.84.16,2.06.16,3.67v58.14c0,4.82-1.33,7.65-3.98,8.48-1.33.42-3,.63-5.03.63s-3.63-.17-4.82-.52c-1.19-.35-2.1-.77-2.72-1.26-.63-.49-1.12-1.19-1.47-2.1-.35-1.19-.52-3-.52-5.45v-35.09c-1.75,2.17-4.29,5.6-7.65,10.32-3.35,4.71-5.48,7.67-6.39,8.85-.91,1.19-1.54,2.01-1.89,2.46-.35.46-1.2,1.08-2.57,1.89-1.36.8-2.83,1.2-4.4,1.2s-3-.37-4.29-1.1c-1.29-.73-2.22-1.45-2.78-2.15l-.84-1.15c-1.4-1.75-4.16-5.46-8.28-11.16-4.12-5.69-6.36-8.75-6.7-9.17v35.3c0,1.61-.05,2.81-.16,3.61-.1.8-.44,1.69-1,2.67-1.05,1.89-3.77,2.83-8.17,2.83s-6.91-.94-7.96-2.83c-.56-.98-.89-1.89-1-2.72-.1-.84-.16-2.1-.16-3.77v-58.14c0-1.61.05-2.81.16-3.61.1-.8.44-1.73,1-2.78,1.05-1.81,3.77-2.72,8.17-2.72,1.89,0,3.51.23,4.87.68,1.36.46,2.25.93,2.67,1.41l.63.63,23.78,31.22c11.87-15.71,19.8-26.08,23.78-31.11,1.19-1.89,4-2.83,8.43-2.83s7.14.94,8.12,2.83Z"/>
      <path d="m184.28,94.94c0,2.33-.58,4.06-1.73,5.17-1.16,1.12-2.44,1.68-3.84,1.68h-13.47c0,1.06.63,1.95,1.88,2.67,1.25.72,2.5,1.08,3.75,1.08,2.2,0,3.92-.23,5.17-.68l.62-.23c.91-.42,1.67-.62,2.27-.62,1.21,0,2.25.85,3.13,2.56.49,1.02.74,1.9.74,2.61,0,3.37-4.04,5.06-12.11,5.06-2.8,0-5.3-.48-7.47-1.45-2.18-.97-3.88-2.25-5.09-3.84-2.39-3.07-3.58-6.5-3.58-10.29,0-4.77,1.54-8.59,4.63-11.45,3.09-2.86,6.94-4.29,11.57-4.29,5.27,0,9.13,1.86,11.6,5.57,1.29,1.97,1.93,4.12,1.93,6.45Zm-11.99,1.68c1.44,0,2.16-.61,2.16-1.82,0-.87-.33-1.57-.99-2.1-.66-.53-1.61-.8-2.84-.8s-2.45.5-3.67,1.51c-1.21,1-1.82,2.07-1.82,3.21h7.16Z"/>
      <path d="m207.41,86.73c.23-2.12,1.72-3.18,4.49-3.18,1.48,0,2.58.11,3.3.34.72.23,1.22.62,1.51,1.19.28.57.45,1.07.51,1.51.06.44.09,1.09.09,1.96v19.89c0,.87-.03,1.53-.09,1.96-.06.44-.22.94-.48,1.51-.53.99-1.83,1.48-3.89,1.48s-3.45-.26-4.15-.77c-.7-.51-1.11-1.26-1.22-2.25-1.4,2.01-3.74,3.01-7.02,3.01s-6.32-1.5-9.12-4.49c-2.81-2.99-4.21-6.47-4.21-10.43s1.41-7.43,4.23-10.4c2.82-2.97,5.92-4.46,9.29-4.46,1.29,0,2.46.23,3.52.68,1.06.45,1.8.88,2.22,1.28.42.4.76.79,1.02,1.17Zm-10.34,11.82c0,1.25.49,2.38,1.48,3.38.99,1,2.18,1.51,3.58,1.51s2.57-.51,3.5-1.53c.93-1.02,1.39-2.15,1.39-3.38s-.45-2.38-1.34-3.44c-.89-1.06-2.08-1.59-3.58-1.59s-2.71.53-3.64,1.59c-.93,1.06-1.39,2.22-1.39,3.47Z"/>
      <path d="m221.85,74.45c0-.87.03-1.52.09-1.96.06-.44.22-.94.48-1.51.53-1.02,2.01-1.53,4.43-1.53s3.75.51,4.32,1.53c.3.57.48,1.08.54,1.53.06.45.09,1.12.09,1.99v26.32c0,1.36.11,2.23.34,2.59.23.36.73.54,1.51.54s1.3.03,1.56.09c.26.06.59.22.97.48.76.49,1.14,1.84,1.14,4.04,0,2.39-.38,3.85-1.14,4.38-.99.68-3.33.8-7.05.34-2.92-.38-4.81-1.34-5.68-2.9-1.06-1.86-1.59-4.81-1.59-8.87v-27.06Z"/>
      <path d="m251.67,36.61l19.38.1c10.12,0,19.03,3.65,26.71,10.95,7.68,7.3,11.52,16.27,11.52,26.92s-3.75,19.78-11.26,27.39c-7.51,7.61-16.6,11.42-27.29,11.42h-19.17c-4.26,0-6.91-.87-7.96-2.62-.84-1.47-1.26-3.7-1.26-6.7v-58.24c0-1.68.05-2.9.16-3.67.1-.77.44-1.68,1-2.72.98-1.89,3.7-2.83,8.17-2.83Zm33,52.64c4.05-3.73,6.08-8.43,6.08-14.09s-1.97-10.39-5.92-14.19c-3.95-3.81-8.57-5.71-13.88-5.71h-10.06v39.59h10.16c5.03,0,9.57-1.87,13.62-5.6Z"/>
      <path d="m343.05,94.94c0,2.33-.58,4.06-1.73,5.17-1.16,1.12-2.44,1.68-3.84,1.68h-13.47c0,1.06.63,1.95,1.88,2.67,1.25.72,2.5,1.08,3.75,1.08,2.2,0,3.92-.23,5.17-.68l.62-.23c.91-.42,1.67-.62,2.27-.62,1.21,0,2.25.85,3.13,2.56.49,1.02.74,1.9.74,2.61,0,3.37-4.04,5.06-12.11,5.06-2.8,0-5.3-.48-7.47-1.45-2.18-.97-3.88-2.25-5.09-3.84-2.39-3.07-3.58-6.5-3.58-10.29,0-4.77,1.54-8.59,4.63-11.45,3.09-2.86,6.94-4.29,11.57-4.29,5.27,0,9.13,1.86,11.6,5.57,1.29,1.97,1.93,4.12,1.93,6.45Zm-11.99,1.68c1.44,0,2.16-.61,2.16-1.82,0-.87-.33-1.57-.99-2.1-.66-.53-1.61-.8-2.84-.8s-2.45.5-3.67,1.51c-1.21,1-1.82,2.07-1.82,3.21h7.16Z"/>
      <path d="m366.19,86.73c.23-2.12,1.72-3.18,4.49-3.18,1.48,0,2.58.11,3.3.34.72.23,1.22.62,1.51,1.19.28.57.45,1.07.51,1.51.06.44.09,1.09.09,1.96v19.89c0,.87-.03,1.53-.09,1.96-.06.44-.22.94-.48,1.51-.53.99-1.83,1.48-3.89,1.48s-3.45-.26-4.15-.77c-.7-.51-1.11-1.26-1.22-2.25-1.4,2.01-3.74,3.01-7.02,3.01s-6.32-1.5-9.12-4.49c-2.81-2.99-4.21-6.47-4.21-10.43s1.41-7.43,4.23-10.4c2.82-2.97,5.92-4.46,9.29-4.46,1.29,0,2.46.23,3.52.68,1.06.45,1.8.88,2.22,1.28.42.4.76.79,1.02,1.17Zm-10.34,11.82c0,1.25.49,2.38,1.48,3.38.99,1,2.18,1.51,3.58,1.51s2.57-.51,3.5-1.53c.93-1.02,1.39-2.15,1.39-3.38s-.45-2.38-1.34-3.44c-.89-1.06-2.08-1.59-3.58-1.59s-2.71.53-3.64,1.59c-.93,1.06-1.39,2.22-1.39,3.47Z"/>
      <path d="m380.62,74.45c0-.87.03-1.52.09-1.96.06-.44.22-.94.48-1.51.53-1.02,2.01-1.53,4.43-1.53s3.75.51,4.32,1.53c.3.57.48,1.08.54,1.53.06.45.09,1.12.09,1.99v26.32c0,1.36.11,2.23.34,2.59.23.36.73.54,1.51.54s1.3.03,1.56.09c.26.06.59.22.97.48.76.49,1.14,1.84,1.14,4.04,0,2.39-.38,3.85-1.14,4.38-.99.68-3.33.8-7.05.34-2.92-.38-4.81-1.34-5.68-2.9-1.06-1.86-1.59-4.81-1.59-8.87v-27.06Z"/>
      <path d="m414.16,103.49h9.72c1.52,0,2.6.19,3.27.57.66.38,1.11.93,1.34,1.65.23.72.34,1.67.34,2.84s-.11,2.12-.34,2.84c-.23.72-.62,1.22-1.19,1.51-.57.28-1.07.45-1.51.51-.44.06-1.09.09-1.96.09h-20.52c-1.33,0-2.48-.49-3.47-1.48-.99-.98-1.48-2.16-1.48-3.52s.49-2.53,1.48-3.5c.98-.97,2.5-2.36,4.55-4.18,2.05-1.82,3.9-3.46,5.57-4.92,1.67-1.46,2.58-2.26,2.73-2.42h-8.01c-2.16,0-3.52-.36-4.09-1.08-.64-.83-.97-1.93-.97-3.3s.09-2.38.28-3.04c.19-.66.42-1.16.68-1.48.26-.32.64-.58,1.14-.77.64-.19,1.63-.28,2.96-.28h18.47c1.33,0,2.48.47,3.47,1.42.98.95,1.48,2.13,1.48,3.55s-.57,2.68-1.71,3.78c-1.14,1.1-5.21,4.83-12.22,11.2Z"/>
    </g>
  </g>
</svg>