<?xml version="1.0" encoding="UTF-8"?>
<svg id="Layer_2" data-name="Layer 2" xmlns="http://www.w3.org/2000/svg" viewBox="0 0 430.24 138.22">
  <defs>
    <style>
      .cls-1 {
        font-size: 56.84px;
      }

      .cls-2 {
        font-size: 104.75px;
      }

      .cls-3 {
        font-family: FredokaOne-Regular, 'Fredoka One';
      }
    </style>
  </defs>
  <g id="Layer_6" data-name="Layer 6">
    <path d="m3.95,71.96h3.61c2.18,0,3.95-1.77,3.95-3.95v-14.63c0-2.18,1.77-3.95,3.95-3.95h3.24c2.18,0,3.95,1.77,3.95,3.95v14.63c0,2.18,1.77,3.95,3.95,3.95h3.65c2.18,0,3.95-1.77,3.95-3.95v-14.63c0-2.18,1.77-3.95,3.95-3.95h3.51c2.18,0,3.95,1.77,3.95,3.95v14.63c0,2.18,1.77,3.95,3.95,3.95h3.51c2.18,0,3.95-1.77,3.95-3.95v-27c0-1.7-1.09-3.21-2.71-3.75l-12.12-4.01c-1.42-.47-2.98-.1-4.03.96l-6.84,6.84c-1.55,1.55-4.05,1.54-5.59,0l-6.79-6.84c-1.05-1.05-2.6-1.43-4.01-.98l-12.17,3.91c-1.63.52-2.74,2.04-2.74,3.76v27.11c0,2.18,1.77,3.95,3.95,3.95Z"/>
    <path d="m52.27,73.99H4.68c-2.49,0-4.4,2.22-4.03,4.69l4.71,30.77c.3,1.99,2.01,3.46,4.03,3.46h38.71c2.04,0,3.76-1.51,4.04-3.52l4.17-30.77c.33-2.44-1.57-4.62-4.04-4.62Zm-6.95,10.05l-2.53,19.46c-.17,1.28-1.21,2.23-2.45,2.23h-23.47c-1.22,0-2.26-.93-2.44-2.19l-2.85-19.46c-.23-1.56.93-2.97,2.44-2.97h28.85c1.5,0,2.65,1.38,2.45,2.92Z"/>
    <path d="m25,37.35l-3.82-3.82c-.49-.49-.77-1.16-.77-1.86V2.63c0-1.45,1.18-2.63,2.63-2.63h10.95c1.45,0,2.63,1.18,2.63,2.63v29.17c0,.69-.27,1.34-.75,1.84l-3.58,3.67c-1.99,2.05-5.28,2.07-7.3.05Z"/>
    <text class="cls-3" transform="translate(62 113.5)"><tspan class="cls-2" x="0" y="0">M</tspan><tspan class="cls-1" x="91.13" y="0">eal</tspan><tspan class="cls-2" x="176.16" y="0">D</tspan><tspan class="cls-1" x="249.91" y="0">ealz</tspan></text>
  </g>
</svg>