<?xml version="1.0" encoding="UTF-8"?>
<svg id="Layer_2" data-name="Layer 2" xmlns="http://www.w3.org/2000/svg" viewBox="0 0 162.65 212.2">
  <g id="Layer_6" data-name="Layer 6">
    <path d="m47.81,101.1h5.07c3.06,0,5.55-2.48,5.55-5.55v-20.55c0-3.06,2.48-5.55,5.55-5.55h4.55c3.06,0,5.55,2.48,5.55,5.55v20.55c0,3.06,2.48,5.55,5.55,5.55h5.13c3.06,0,5.55-2.48,5.55-5.55v-20.55c0-3.06,2.48-5.55,5.55-5.55h4.94c3.06,0,5.55,2.48,5.55,5.55v20.55c0,3.06,2.48,5.55,5.55,5.55h4.94c3.06,0,5.55-2.48,5.55-5.55v-37.93c0-2.39-1.53-4.51-3.81-5.27l-17.03-5.63c-1.99-.66-4.18-.14-5.66,1.35l-9.6,9.62c-2.17,2.17-5.69,2.17-7.86-.01l-9.55-9.61c-1.47-1.48-3.65-2.01-5.63-1.37l-17.09,5.49c-2.29.74-3.85,2.87-3.85,5.28v38.08c0,3.06,2.48,5.55,5.55,5.55Z"/>
    <path d="m115.7,103.95H48.83c-3.5,0-6.19,3.12-5.66,6.59l6.61,43.23c.43,2.79,2.83,4.86,5.66,4.86h54.39c2.86,0,5.29-2.12,5.67-4.95l5.87-43.23c.47-3.43-2.2-6.49-5.67-6.49Zm-9.77,14.12l-3.56,27.35c-.23,1.8-1.7,3.13-3.44,3.13h-32.97c-1.71,0-3.17-1.3-3.43-3.07l-4.01-27.35c-.32-2.19,1.3-4.17,3.43-4.17h40.54c2.1,0,3.72,1.93,3.44,4.11Z"/>
    <path d="m77.39,52.47l-5.37-5.37c-.69-.69-1.08-1.63-1.08-2.61V3.69c0-2.04,1.65-3.69,3.69-3.69h15.38c2.04,0,3.69,1.65,3.69,3.69v40.98c0,.96-.38,1.89-1.05,2.58l-5.02,5.16c-2.8,2.88-7.41,2.91-10.25.07Z"/>
    <g>
      <path d="m32.27,180.88c.22.44.35.83.39,1.18.04.35.06.86.06,1.54v24.36c0,2.02-.52,3.2-1.57,3.55-.52.18-1.19.26-1.99.26s-1.44-.07-1.91-.22c-.47-.15-.83-.32-1.08-.53-.25-.2-.44-.5-.58-.88-.14-.5-.21-1.26-.21-2.28v-14.7c-.69.91-1.7,2.35-3.02,4.32-1.33,1.98-2.17,3.21-2.53,3.71-.36.5-.61.84-.75,1.03-.14.19-.48.45-1.01.79-.54.34-1.12.5-1.74.5s-1.19-.15-1.7-.46c-.51-.31-.88-.61-1.1-.9l-.33-.48c-.55-.73-1.64-2.29-3.27-4.67-1.63-2.38-2.51-3.66-2.65-3.84v14.79c0,.67-.02,1.18-.06,1.51-.04.34-.17.71-.39,1.12-.41.79-1.49,1.18-3.23,1.18s-2.73-.39-3.15-1.18c-.22-.41-.35-.79-.39-1.14-.04-.35-.06-.88-.06-1.58v-24.36c0-.67.02-1.18.06-1.51.04-.34.17-.72.39-1.16.41-.76,1.49-1.14,3.23-1.14.75,0,1.39.1,1.93.29.54.19.89.39,1.06.59l.25.26,9.4,13.08c4.69-6.58,7.83-10.93,9.4-13.03.47-.79,1.58-1.18,3.33-1.18s2.82.39,3.21,1.18Z"/>
      <path d="m49.66,202.16c0,1.21-.28,2.11-.85,2.69-.57.58-1.2.87-1.88.87h-6.61c0,.55.31,1.01.92,1.39.61.38,1.23.56,1.84.56,1.08,0,1.92-.12,2.54-.35l.31-.12c.45-.22.82-.33,1.12-.33.6,0,1.11.44,1.53,1.33.24.53.36.99.36,1.36,0,1.75-1.98,2.63-5.94,2.63-1.38,0-2.6-.25-3.67-.75-1.07-.5-1.9-1.17-2.5-2-1.17-1.6-1.76-3.38-1.76-5.35,0-2.48.76-4.47,2.27-5.95s3.41-2.23,5.68-2.23c2.58,0,4.48.96,5.69,2.9.63,1.03.95,2.14.95,3.35Zm-5.89.87c.71,0,1.06-.31,1.06-.95,0-.45-.16-.82-.49-1.09-.33-.28-.79-.41-1.39-.41s-1.2.26-1.8.78c-.6.52-.89,1.08-.89,1.67h3.51Z"/>
      <path d="m61.02,197.89c.11-1.1.85-1.65,2.2-1.65.73,0,1.26.06,1.62.18.35.12.6.33.74.62.14.29.22.56.25.78s.04.57.04,1.02v10.34c0,.45-.01.79-.04,1.02s-.11.49-.24.78c-.26.51-.9.77-1.91.77s-1.69-.13-2.04-.4-.54-.66-.6-1.17c-.69,1.04-1.84,1.57-3.44,1.57s-3.1-.78-4.48-2.33c-1.38-1.56-2.06-3.36-2.06-5.42s.69-3.86,2.08-5.41,2.91-2.32,4.56-2.32c.63,0,1.21.12,1.73.35.52.24.88.46,1.09.67.2.21.37.41.5.61Zm-5.08,6.15c0,.65.24,1.24.73,1.76.48.52,1.07.78,1.76.78s1.26-.27,1.72-.8c.46-.53.68-1.12.68-1.76s-.22-1.24-.66-1.79c-.44-.55-1.02-.83-1.76-.83s-1.33.28-1.79.83-.68,1.15-.68,1.8Z"/>
      <path d="m68.1,191.51c0-.45.01-.79.04-1.02s.11-.49.24-.78c.26-.53.99-.8,2.18-.8s1.84.27,2.12.8c.15.29.24.56.27.8s.04.58.04,1.03v13.68c0,.71.06,1.16.17,1.34.11.19.36.28.74.28s.64.01.77.04c.13.03.29.11.47.25.37.26.56.96.56,2.1,0,1.24-.19,2-.56,2.28-.48.36-1.64.41-3.46.18-1.43-.2-2.36-.7-2.79-1.51-.52-.97-.78-2.5-.78-4.61v-14.07Z"/>
      <path d="m81.45,179.6l7.66.04c4,0,7.52,1.53,10.56,4.59,3.04,3.06,4.56,6.82,4.56,11.28s-1.48,8.29-4.45,11.48c-2.97,3.19-6.56,4.78-10.79,4.78h-7.58c-1.68,0-2.73-.37-3.15-1.1-.33-.61-.5-1.55-.5-2.81v-24.4c0-.7.02-1.21.06-1.54.04-.32.17-.7.39-1.14.39-.79,1.46-1.18,3.23-1.18Zm13.05,22.05c1.6-1.56,2.4-3.53,2.4-5.9s-.78-4.35-2.34-5.95c-1.56-1.59-3.39-2.39-5.49-2.39h-3.98v16.59h4.02c1.99,0,3.78-.78,5.38-2.35Z"/>
      <path d="m120.55,202.16c0,1.21-.28,2.11-.85,2.69-.57.58-1.2.87-1.88.87h-6.61c0,.55.31,1.01.92,1.39.61.38,1.23.56,1.84.56,1.08,0,1.92-.12,2.54-.35l.31-.12c.45-.22.82-.33,1.12-.33.6,0,1.11.44,1.53,1.33.24.53.36.99.36,1.36,0,1.75-1.98,2.63-5.94,2.63-1.38,0-2.6-.25-3.67-.75-1.07-.5-1.9-1.17-2.5-2-1.17-1.6-1.76-3.38-1.76-5.35,0-2.48.76-4.47,2.27-5.95s3.41-2.23,5.68-2.23c2.58,0,4.48.96,5.69,2.9.63,1.03.95,2.14.95,3.35Zm-5.89.87c.71,0,1.06-.31,1.06-.95,0-.45-.16-.82-.49-1.09-.33-.28-.79-.41-1.39-.41s-1.2.26-1.8.78c-.6.52-.89,1.08-.89,1.67h3.51Z"/>
      <path d="m131.91,197.89c.11-1.1.85-1.65,2.2-1.65.73,0,1.26.06,1.62.18.35.12.6.33.74.62.14.29.22.56.25.78s.04.57.04,1.02v10.34c0,.45-.01.79-.04,1.02s-.11.49-.24.78c-.26.51-.9.77-1.91.77s-1.69-.13-2.04-.4-.54-.66-.6-1.17c-.69,1.04-1.84,1.57-3.44,1.57s-3.1-.78-4.48-2.33c-1.38-1.56-2.06-3.36-2.06-5.42s.69-3.86,2.08-5.41,2.91-2.32,4.56-2.32c.63,0,1.21.12,1.73.35.52.24.88.46,1.09.67.2.21.37.41.5.61Zm-5.08,6.15c0,.65.24,1.24.73,1.76.48.52,1.07.78,1.76.78s1.26-.27,1.72-.8c.46-.53.68-1.12.68-1.76s-.22-1.24-.66-1.79c-.44-.55-1.02-.83-1.76-.83s-1.33.28-1.79.83-.68,1.15-.68,1.8Z"/>
      <path d="m138.99,191.51c0-.45.01-.79.04-1.02s.11-.49.24-.78c.26-.53.99-.8,2.18-.8s1.84.27,2.12.8c.15.29.24.56.27.8s.04.58.04,1.03v13.68c0,.71.06,1.16.17,1.34.11.19.36.28.74.28s.64.01.77.04c.13.03.29.11.47.25.37.26.56.96.56,2.1,0,1.24-.19,2-.56,2.28-.48.36-1.64.41-3.46.18-1.43-.2-2.36-.7-2.79-1.51-.52-.97-.78-2.5-.78-4.61v-14.07Z"/>
      <path d="m155.45,206.61h4.77c.74,0,1.28.1,1.6.29.33.2.54.48.66.86.11.38.17.87.17,1.48s-.06,1.1-.17,1.48c-.11.38-.31.64-.59.78-.28.15-.53.24-.74.27-.21.03-.54.04-.96.04h-10.07c-.65,0-1.22-.26-1.7-.77-.48-.51-.73-1.12-.73-1.83s.24-1.32.73-1.82c.48-.5,1.23-1.23,2.23-2.17,1-.95,1.92-1.8,2.73-2.56s1.26-1.18,1.34-1.26h-3.93c-1.06,0-1.73-.19-2.01-.56-.32-.43-.47-1-.47-1.71s.05-1.24.14-1.58c.09-.34.2-.6.33-.77.13-.17.32-.3.56-.4.32-.1.8-.15,1.45-.15h9.07c.65,0,1.22.25,1.7.74.48.49.73,1.11.73,1.85s-.28,1.39-.84,1.96c-.56.57-2.56,2.51-6,5.82Z"/>
    </g>
  </g>
</svg>