<?xml version="1.0" encoding="UTF-8"?>
<svg id="Layer_2" data-name="Layer 2" xmlns="http://www.w3.org/2000/svg" viewBox="0 0 80.08 158.62">
  <g id="Layer_6" data-name="Layer 6">
    <path d="m5.55,101.1h5.07c3.06,0,5.55-2.48,5.55-5.55v-20.55c0-3.06,2.48-5.55,5.55-5.55h4.55c3.06,0,5.55,2.48,5.55,5.55v20.55c0,3.06,2.48,5.55,5.55,5.55h5.13c3.06,0,5.55-2.48,5.55-5.55v-20.55c0-3.06,2.48-5.55,5.55-5.55h4.94c3.06,0,5.55,2.48,5.55,5.55v20.55c0,3.06,2.48,5.55,5.55,5.55h4.94c3.06,0,5.55-2.48,5.55-5.55v-37.93c0-2.39-1.53-4.51-3.81-5.27l-17.03-5.63c-1.99-.66-4.18-.14-5.66,1.35l-9.6,9.62c-2.17,2.17-5.69,2.17-7.86-.01l-9.55-9.61c-1.47-1.48-3.65-2.01-5.63-1.37l-17.09,5.49c-2.29.74-3.85,2.87-3.85,5.28v38.08c0,3.06,2.48,5.55,5.55,5.55Z"/>
    <path d="m73.44,103.95H6.57c-3.5,0-6.19,3.12-5.66,6.59l6.61,43.23c.43,2.79,2.83,4.86,5.66,4.86h54.39c2.86,0,5.29-2.12,5.67-4.95l5.87-43.23c.47-3.43-2.2-6.49-5.67-6.49Zm-9.77,14.12l-3.56,27.35c-.23,1.8-1.7,3.13-3.44,3.13H23.71c-1.71,0-3.17-1.3-3.43-3.07l-4.01-27.35c-.32-2.19,1.3-4.17,3.43-4.17h40.54c2.1,0,3.72,1.93,3.44,4.11Z"/>
    <path d="m35.13,52.47l-5.37-5.37c-.69-.69-1.08-1.63-1.08-2.61V3.69c0-2.04,1.65-3.69,3.69-3.69h15.38c2.04,0,3.69,1.65,3.69,3.69v40.98c0,.96-.38,1.89-1.05,2.58l-5.02,5.16c-2.8,2.88-7.41,2.91-10.25.07Z"/>
  </g>
</svg>