<?xml version="1.0" encoding="UTF-8"?>
<svg id="Layer_2" data-name="Layer 2" xmlns="http://www.w3.org/2000/svg" viewBox="0 0 410.82 139.24">
  <defs>
    <style>
      .cls-1 {
        font-family: FredokaOne-Regular, 'Fredoka One';
        font-size: 62px;
      }
    </style>
  </defs>
  <g id="Layer_6" data-name="Layer 6">
    <path d="m6.85,124.95h6.27c3.79,0,6.85-3.07,6.85-6.85v-25.4c0-3.79,3.07-6.85,6.85-6.85h5.63c3.79,0,6.85,3.07,6.85,6.85v25.4c0,3.79,3.07,6.85,6.85,6.85h6.34c3.79,0,6.85-3.07,6.85-6.85v-25.4c0-3.79,3.07-6.85,6.85-6.85h6.1c3.79,0,6.85,3.07,6.85,6.85v25.4c0,3.79,3.07,6.85,6.85,6.85h6.1c3.79,0,6.85-3.07,6.85-6.85v-46.88c0-2.96-1.9-5.58-4.7-6.51l-21.05-6.96c-2.46-.81-5.17-.17-7,1.66l-11.87,11.88c-2.68,2.69-7.04,2.68-9.71-.01l-11.8-11.88c-1.82-1.83-4.51-2.48-6.96-1.7l-21.12,6.79c-2.83.91-4.76,3.55-4.76,6.53v47.07c0,3.79,3.07,6.85,6.85,6.85Z"/>
    <path d="m206.66,35.93v82.64c0,4.33,3.86,7.64,8.14,6.99l53.42-8.17c3.45-.53,6-3.5,6-6.99V43.18c0-3.54-2.62-6.53-6.12-7.01l-53.42-7.25c-4.24-.58-8.02,2.72-8.02,7.01Zm17.45,12.07l33.8,4.39c2.22.29,3.87,2.1,3.87,4.25v40.75c0,2.12-1.61,3.92-3.8,4.24l-33.8,4.95c-2.71.4-5.15-1.61-5.15-4.24v-50.1c0-2.6,2.39-4.6,5.07-4.25Z"/>
    <path d="m43.42,64.85l-6.63-6.63c-.86-.86-1.34-2.02-1.34-3.23V4.57c0-2.52,2.04-4.57,4.57-4.57h19.01c2.52,0,4.57,2.04,4.57,4.57v50.64c0,1.19-.46,2.33-1.3,3.19l-6.21,6.37c-3.46,3.55-9.16,3.59-12.67.08Z"/>
    <text class="cls-1" transform="translate(104.9 124.61)"><tspan x="0" y="0">eal</tspan></text>
    <text class="cls-1" transform="translate(281.73 124.61)"><tspan x="0" y="0">ealz</tspan></text>
  </g>
</svg>